<svg xmlns="http://www.w3.org/2000/svg" width="37.111" height="37.111" viewBox="0 0 37.111 37.111">
  <path id="Path_2" data-name="Path 2" d="M3,3H6.9l.78,3.9m3.121,15.6H30.309l7.8-15.6H7.681m3.121,15.6L7.681,6.9m3.121,15.6L6.33,26.979a1.95,1.95,0,0,0,1.379,3.33h22.6m0,0a3.9,3.9,0,1,0,3.9,3.9A3.9,3.9,0,0,0,30.309,30.309Zm-15.6,3.9a3.9,3.9,0,1,1-3.9-3.9A3.9,3.9,0,0,1,14.7,34.21Z" transform="translate(-2 -2)" fill="none" stroke="#000" stroke-linecap="round" stroke-linejoin="round" stroke-width="2"/>
</svg>
